<svg width="48" height="48" viewBox="0 0 48 48" fill="none" xmlns="http://www.w3.org/2000/svg">
  <rect width="48" height="48" rx="12" fill="#3563E9"/>
  <path d="M34 16H14C12.9 16 12 16.9 12 18V30C12 31.1 12.9 32 14 32H34C35.1 32 36 31.1 36 30V18C36 16.9 35.1 16 34 16ZM34 30H14V18H34V30Z" fill="white"/>
  <path d="M28.5 25.5C29.88 25.5 31 24.38 31 23C31 21.62 29.88 20.5 28.5 20.5C27.12 20.5 26 21.62 26 23C26 24.38 27.12 25.5 28.5 25.5Z" fill="white"/>
  <path d="M19.5 25.5C20.88 25.5 22 24.38 22 23C22 21.62 20.88 20.5 19.5 20.5C18.12 20.5 17 21.62 17 23C17 24.38 18.12 25.5 19.5 25.5Z" fill="white"/>
  <path d="M36 34H12V36H36V34Z" fill="white"/>
  <path d="M36 12H12V14H36V12Z" fill="white"/>
</svg>
